<?xml version="1.0" standalone="no"?>
<!DOCTYPE svg PUBLIC "-//W3C//DTD SVG 20010904//EN"
 "http://www.w3.org/TR/2001/REC-SVG-20010904/DTD/svg10.dtd">
<svg version="1.0" xmlns="http://www.w3.org/2000/svg"
 width="1125.000000pt" height="1125.000000pt" viewBox="0 0 1125.000000 1125.000000"
 preserveAspectRatio="xMidYMid meet">
<metadata>
Created by potrace 1.14, written by Peter Selinger 2001-2017
</metadata>
<g transform="translate(0.000000,1125.000000) scale(0.100000,-0.100000)"
fill="#000000" stroke="none">
<path d="M5415 9282 c-1 -1 -22 -5 -46 -7 -24 -2 -44 -4 -44 -5 0 -1 -36 -3
-80 -6 -87 -4 -143 -10 -220 -20 -27 -4 -62 -7 -77 -8 -16 -1 -28 -3 -28 -6 0
-3 -15 -7 -33 -8 -18 -1 -44 -5 -57 -7 -14 -3 -38 -8 -55 -10 -16 -3 -38 -8
-48 -11 -10 -3 -32 -7 -49 -10 -17 -2 -35 -9 -40 -16 -5 -9 -8 -10 -8 -1 0 8
-9 9 -32 2 -18 -6 -42 -12 -53 -14 -11 -2 -47 -11 -79 -19 -33 -9 -69 -18 -80
-21 -12 -2 -21 -4 -21 -5 0 -1 -11 -4 -25 -6 -13 -2 -27 -8 -30 -12 -3 -4 -15
-7 -27 -6 -13 1 -23 -2 -23 -6 0 -8 -74 -25 -76 -18 0 1 -7 -2 -15 -8 -8 -6
-35 -17 -61 -25 -27 -7 -48 -17 -48 -22 0 -4 -4 -5 -10 -2 -5 3 -16 3 -22 -2
-14 -8 -19 -10 -43 -12 -8 0 -15 -5 -15 -9 0 -5 91 -8 203 -7 111 0 206 -2
212 -4 17 -9 45 -8 45 1 0 5 5 6 12 2 15 -9 107 -17 230 -18 54 -1 98 -4 98
-7 0 -3 23 -6 51 -6 28 -1 53 -3 55 -5 6 -7 -106 -54 -171 -73 -91 -26 -201
-104 -249 -177 l-18 -27 -534 1 c-395 0 -534 3 -534 12 0 6 -5 4 -10 -4 -8
-13 -10 -12 -10 4 0 11 5 16 14 13 7 -3 19 0 26 6 10 9 11 9 5 -2 -5 -8 2 -7
19 4 15 10 31 26 37 36 6 12 15 16 26 12 10 -4 14 -2 9 5 -3 6 -1 14 5 17 5 4
8 13 5 21 -3 7 -1 16 5 19 5 4 6 11 3 17 -5 8 -1 9 10 5 21 -8 66 36 66 64 0
11 5 19 11 19 5 0 7 5 4 10 -3 6 -2 10 2 10 5 0 9 9 10 20 2 23 2 23 -34 8
-15 -6 -31 -11 -35 -10 -5 1 -8 -2 -8 -7 0 -5 -8 -8 -17 -6 -10 1 -29 -7 -42
-19 -13 -11 -21 -15 -17 -9 5 9 2 11 -8 7 -9 -3 -16 -10 -16 -16 0 -5 -4 -6
-10 -3 -5 3 -10 0 -10 -7 0 -10 -2 -10 -9 1 -6 9 -11 10 -15 3 -4 -6 -13 -9
-21 -5 -8 3 -15 -1 -15 -8 0 -7 -3 -10 -6 -6 -4 3 -21 0 -38 -7 -17 -7 -37
-11 -45 -8 -9 3 -11 0 -6 -8 6 -10 3 -10 -10 -2 -14 7 -27 5 -51 -8 -18 -10
-35 -16 -39 -12 -3 3 -10 0 -15 -8 -9 -13 -10 -13 -10 0 0 13 -1 13 -10 0 -9
-13 -10 -13 -10 0 0 13 -1 13 -10 0 -8 -13 -10 -13 -10 -1 0 11 -4 10 -16 -5
-15 -19 -16 -19 -9 1 5 15 3 17 -6 8 -6 -6 -18 -9 -27 -6 -11 5 -13 3 -7 -8 8
-12 6 -12 -8 0 -13 10 -17 10 -17 1 0 -9 -4 -9 -17 1 -13 11 -15 11 -9 1 6
-11 1 -13 -20 -11 -16 2 -35 0 -42 -4 -7 -5 -12 -3 -12 5 0 9 -3 9 -10 -2 -9
-13 -11 -13 -20 0 -5 8 -10 10 -10 5 0 -16 -43 -13 -58 4 -8 9 -11 10 -7 4 3
-7 2 -13 -4 -13 -5 0 -13 9 -16 20 -3 11 -13 20 -21 20 -8 0 -13 4 -9 9 3 6
-4 8 -15 6 -11 -2 -20 1 -20 6 0 5 -6 4 -14 -3 -8 -7 -12 -21 -10 -31 3 -15 1
-17 -11 -7 -12 10 -15 10 -15 -1 0 -10 -3 -10 -8 -3 -4 6 -15 10 -24 8 -10 -1
-21 2 -24 8 -4 6 -10 5 -15 -3 -6 -9 -12 -10 -16 -4 -10 13 -57 20 -50 8 4 -5
-4 -9 -16 -8 -31 3 -57 -13 -51 -30 4 -8 1 -15 -6 -15 -9 0 -10 -3 -1 -13 6
-8 8 -16 5 -19 -3 -3 5 -6 18 -5 30 1 51 -6 60 -18 5 -6 8 -4 8 5 0 13 2 13 9
1 8 -13 12 -13 27 0 11 9 15 9 10 2 -5 -9 0 -13 14 -13 14 0 19 4 14 13 -6 9
-4 9 7 1 8 -6 25 -10 39 -9 19 1 26 -3 26 -16 0 -10 -4 -15 -9 -12 -5 3 -8 0
-5 -7 2 -8 17 -15 32 -17 15 -2 25 0 22 5 -5 8 1 10 43 14 11 1 19 7 18 13 -1
5 5 8 13 6 8 -2 22 -4 30 -4 8 0 21 -4 28 -10 8 -6 12 -6 12 1 0 6 13 7 34 2
19 -4 37 -5 40 -2 4 3 6 -1 6 -9 0 -11 2 -11 10 1 8 12 10 12 10 1 0 -8 3 -11
7 -8 3 4 12 2 20 -4 10 -9 13 -8 13 1 0 9 3 10 13 1 10 -8 17 -7 27 2 10 9 11
9 5 -1 -5 -10 0 -13 21 -9 16 2 40 1 54 -3 14 -4 -120 -8 -297 -9 -215 -1
-323 2 -324 9 -1 5 -2 15 -3 20 -2 15 -28 30 -40 23 -5 -3 -6 -1 -2 5 5 8 -2
11 -22 8 -39 -4 -55 -15 -48 -33 4 -10 2 -13 -8 -10 -10 4 -14 0 -11 -14 2
-10 -1 -19 -6 -19 -6 0 -8 -4 -4 -9 3 -5 1 -13 -5 -16 -8 -5 -7 -12 2 -23 11
-14 10 -15 -7 -8 -18 7 -18 5 3 -14 22 -21 30 -36 13 -26 -9 6 -9 -62 0 -79 3
-5 5 -119 4 -251 l-1 -242 -29 -25 c-74 -63 -113 -104 -119 -124 -4 -11 -30
-45 -59 -75 -82 -85 -83 -86 -61 -102 10 -8 26 -11 34 -8 13 6 42 7 63 2 20
-5 135 -2 145 4 6 3 14 1 19 -6 12 -20 11 -328 -2 -330 -5 -1 -39 -2 -75 -3
-36 0 -71 -4 -78 -9 -7 -4 -12 -2 -12 5 0 9 -3 9 -14 0 -10 -8 -16 -9 -21 -1
-4 7 -12 7 -26 0 -14 -8 -19 -7 -19 2 0 9 -3 9 -11 1 -7 -7 -21 -8 -39 -3 -16
5 -31 6 -34 2 -3 -3 -6 0 -6 8 0 9 -4 9 -13 2 -6 -6 -24 -8 -39 -5 -23 4 -28
11 -28 34 0 17 -6 32 -14 35 -27 10 -212 -64 -264 -106 -18 -15 -20 -23 -13
-43 17 -45 -42 -102 -74 -71 -21 22 -36 8 -69 -66 -34 -75 -36 -119 -7 -156
13 -17 18 -30 12 -32 -6 -2 -11 -10 -11 -18 0 -8 -4 -14 -10 -14 -5 0 -10 -4
-10 -10 0 -5 -13 -32 -30 -60 -16 -27 -26 -50 -22 -50 4 0 2 -4 -4 -8 -5 -4
-28 -43 -50 -87 -21 -44 -42 -81 -46 -83 -5 -2 -8 -9 -8 -16 0 -17 -24 -66
-32 -66 -4 0 -5 -7 -2 -15 4 -8 1 -15 -5 -15 -6 0 -11 -5 -11 -11 0 -5 -9 -30
-20 -54 -18 -41 -28 -48 -108 -86 -48 -23 -106 -49 -128 -59 -48 -21 -63 -38
-43 -51 17 -11 54 -5 139 21 36 11 66 20 67 20 1 0 1 -9 0 -20 -1 -11 -5 -20
-10 -20 -4 0 -5 -4 -2 -10 3 -5 2 -10 -4 -10 -5 0 -8 -9 -6 -20 2 -11 -1 -20
-7 -20 -5 0 -8 -6 -5 -14 3 -8 2 -16 -4 -18 -5 -2 -11 -12 -13 -23 -3 -11 -16
-53 -30 -92 -14 -40 -22 -73 -19 -73 3 0 1 -6 -4 -12 -6 -7 -16 -35 -23 -63
-7 -27 -16 -54 -19 -60 -3 -5 -6 -19 -7 -30 -1 -11 -6 -32 -12 -46 -6 -15 -8
-30 -4 -35 4 -4 1 -4 -6 0 -18 10 -112 14 -118 4 -3 -4 -24 -8 -47 -8 -50 0
-70 -11 -62 -32 4 -10 25 -17 63 -21 31 -3 76 -11 99 -18 37 -12 42 -17 40
-39 -2 -14 -6 -30 -10 -36 -5 -9 -10 -36 -19 -109 -2 -11 -25 -44 -53 -73 -47
-50 -115 -147 -115 -164 0 -12 36 5 64 30 15 12 30 22 35 22 5 0 11 7 15 15 9
25 22 17 20 -12 -1 -16 -3 -34 -3 -40 -1 -8 -14 -13 -31 -13 -30 0 -99 -24
-110 -38 -3 -4 -15 -15 -26 -25 -22 -18 -22 -18 -22 22 -1 56 -26 102 -88 165
-78 78 -134 86 -74 11 16 -20 35 -50 42 -66 7 -16 16 -29 20 -29 5 0 8 -6 8
-12 0 -7 6 -24 13 -38 8 -14 16 -36 20 -49 l6 -23 -20 21 c-46 49 -120 68
-246 63 -36 -2 -43 -5 -43 -22 0 -11 6 -20 13 -21 47 -3 139 -20 157 -29 8 -5
36 -18 62 -29 27 -12 48 -22 48 -24 0 -1 -19 -3 -43 -5 -60 -3 -104 -28 -169
-97 -76 -79 -81 -131 -6 -67 31 26 178 107 178 97 0 -2 -8 -19 -18 -37 -10
-18 -17 -40 -17 -48 1 -19 27 -14 40 7 6 8 23 34 40 57 l29 41 13 -105 c17
-153 68 -390 95 -446 5 -12 8 -32 6 -45 -3 -22 -8 -24 -83 -30 -110 -9 -253
-28 -295 -39 -19 -5 -75 -16 -125 -25 -50 -10 -97 -20 -105 -23 -8 -3 -37 -10
-64 -16 -27 -6 -52 -17 -54 -25 -4 -12 38 -13 279 -7 397 11 902 7 910 -6 4
-7 9 -7 13 1 10 15 53 14 59 -1 4 -10 7 -10 14 0 5 6 20 12 34 11 13 0 34 2
47 4 15 4 22 1 22 -9 0 -15 -16 -19 -22 -5 -1 5 -9 3 -16 -5 -11 -12 -9 -14
12 -14 14 0 29 8 35 18 8 14 12 15 22 5 7 -7 19 -13 26 -13 7 0 32 -12 54 -26
23 -14 43 -23 47 -20 3 3 0 6 -7 6 -7 0 -10 4 -7 9 8 13 -21 34 -39 27 -8 -3
-19 2 -24 13 -9 16 -5 17 37 18 26 0 39 -2 29 -4 -25 -6 -21 -20 9 -26 20 -4
25 -1 21 12 -3 11 2 17 14 18 12 1 16 -3 13 -15 -5 -15 -4 -15 6 1 7 11 23 17
48 16 20 -1 29 -3 19 -6 -9 -2 -15 -9 -12 -14 4 -5 -3 -9 -15 -9 -24 0 -80
-27 -80 -38 0 -12 31 -14 187 -16 81 0 139 -5 136 -10 -4 -5 0 -6 7 -1 16 10
133 10 149 1 6 -4 11 -3 11 3 0 5 8 8 18 6 9 -2 17 -4 17 -5 0 0 214 -2 475
-4 261 -2 477 -5 480 -6 3 -1 10 -1 15 0 32 7 56 6 61 -2 3 -4 10 -6 15 -2 16
9 59 12 59 3 0 -4 14 -4 30 1 19 5 30 5 30 -1 0 -6 6 -7 12 -3 18 11 48 12 48
2 0 -5 8 -4 18 1 13 7 23 6 30 -1 8 -8 12 -8 12 -2 0 12 29 12 48 0 7 -4 12
-2 12 4 0 6 5 8 13 3 17 -10 37 -13 37 -4 0 7 34 7 50 1 14 -6 36 -4 47 3 6 4
14 3 17 -2 4 -7 15 -7 31 -1 14 5 27 6 30 0 5 -8 12 -8 50 0 6 1 12 1 15 0 15
-7 122 -5 126 2 3 5 11 5 17 1 18 -12 97 -11 97 1 0 7 3 8 8 1 11 -15 64 -17
55 -2 -5 9 -3 9 8 1 8 -6 39 -12 69 -13 99 -2 149 -6 155 -13 4 -4 13 -4 21
-1 8 3 14 1 14 -3 0 -5 15 -10 33 -11 59 -4 112 -15 126 -27 11 -8 13 -8 7 2
-4 6 -2 12 3 12 6 0 11 -4 11 -8 0 -7 32 -12 87 -15 7 0 10 -3 9 -6 -2 -3 -48
-6 -103 -6 -54 0 -101 -4 -105 -10 -5 -6 -8 -5 -8 3 0 7 -4 11 -9 7 -6 -3 -92
-8 -192 -11 -100 -2 -186 -7 -190 -10 -5 -3 -9 -1 -9 4 0 5 -7 9 -15 9 -8 0
-12 -3 -11 -6 2 -3 -44 -6 -102 -6 -59 0 -111 -1 -115 -3 -4 -2 -60 -5 -125
-6 -64 -1 -123 -5 -129 -9 -8 -5 -13 -3 -13 3 0 7 -6 8 -17 1 -10 -5 -26 -5
-40 0 -15 6 -23 5 -23 -2 0 -8 -5 -7 -15 1 -8 7 -15 9 -15 4 0 -5 -11 -10 -25
-10 -14 -1 -25 3 -25 8 0 7 -4 7 -12 1 -17 -14 -50 -13 -67 1 -11 8 -13 8 -8
0 5 -8 -9 -11 -48 -10 -30 0 -55 -1 -55 -4 0 -3 -49 -5 -110 -4 -69 0 -107 -3
-103 -9 4 -6 1 -7 -8 -2 -20 13 -52 14 -66 3 -9 -7 -13 -7 -13 2 0 8 -7 10
-17 5 -32 -12 -53 -14 -53 -4 0 6 -5 7 -12 3 -7 -4 -68 -9 -137 -10 -70 -2
-128 -4 -131 -4 -3 -1 -40 -2 -82 -2 l-78 0 -49 48 c-71 70 -78 75 -116 81
-30 5 -35 2 -40 -18 -3 -13 -5 -42 -4 -64 1 -22 1 -45 0 -51 -1 -6 -31 -10
-78 -9 -43 1 -83 -3 -90 -7 -6 -5 -14 -5 -17 0 -3 5 -25 6 -48 3 -24 -3 -89
-6 -145 -6 -57 0 -103 -4 -103 -8 0 -4 -8 -4 -18 1 -9 5 -26 8 -37 5 -46 -9
-75 -8 -75 1 0 7 -3 8 -8 1 -4 -6 -57 -10 -122 -10 -63 0 -119 -2 -123 -4 -5
-2 -55 -4 -111 -5 -56 -1 -108 -6 -115 -11 -10 -5 -12 -4 -7 3 5 9 0 9 -19 2
-15 -6 -30 -8 -35 -5 -5 3 -10 1 -12 -4 -1 -5 -9 -11 -17 -13 -18 -4 -69 -51
-64 -60 2 -4 -1 -9 -7 -13 -15 -9 -12 -45 5 -51 8 -4 13 -10 10 -14 -5 -9 35
-40 70 -55 27 -11 44 -14 150 -19 50 -2 92 -5 95 -6 3 -1 10 -1 15 0 38 8 45
8 45 -1 0 -6 6 -7 13 -2 17 11 41 10 49 -2 5 -6 8 -5 8 3 0 7 5 10 11 7 16
-10 139 -12 139 -2 0 4 5 5 12 1 17 -11 68 -12 74 -3 3 5 15 5 27 0 12 -4 46
-7 75 -7 28 1 52 -3 52 -9 0 -7 3 -7 8 0 4 6 16 10 27 10 11 0 23 -4 27 -10 5
-6 8 -6 8 1 0 8 11 9 35 4 21 -5 35 -4 35 2 0 5 5 6 11 3 5 -4 105 -8 220 -10
115 -1 213 -5 216 -8 3 -4 14 -2 24 4 14 7 19 6 19 -2 0 -7 5 -8 13 -3 11 8
33 10 47 4 15 -6 93 -4 97 3 3 4 11 3 19 -4 8 -6 17 -9 21 -6 3 4 15 2 26 -4
12 -7 17 -7 13 -1 -7 11 89 10 100 -1 4 -4 13 -2 21 4 10 9 13 8 13 0 0 -7 5
-9 12 -5 6 4 41 6 77 5 36 -2 107 -4 156 -4 50 -1 95 -6 102 -10 6 -4 14 -3
17 1 6 11 78 8 96 -3 9 -5 11 -4 6 3 -4 7 -3 12 3 12 5 0 12 -4 16 -10 4 -6
15 -6 30 0 18 7 25 6 25 -3 0 -8 4 -7 10 3 8 12 10 12 10 1 0 -9 4 -10 13 -4
14 11 27 11 44 0 6 -4 15 -3 18 3 5 8 11 8 20 0 14 -12 36 -10 47 4 4 6 12 6
20 0 7 -5 52 -10 100 -9 49 0 88 -4 88 -8 0 -5 5 -5 11 -1 18 11 89 10 93 -1
3 -5 5 -4 5 3 1 7 5 10 11 7 5 -3 90 -7 190 -8 112 -1 180 -6 180 -12 0 -7 3
-7 8 0 10 14 52 15 52 1 0 -6 5 -4 10 4 7 11 10 11 10 2 0 -10 5 -10 20 -2 11
6 20 7 20 3 0 -11 42 -9 59 1 8 5 16 4 21 -4 10 -15 11 -16 38 -1 12 6 22 8
22 4 0 -4 78 -9 173 -10 244 -2 247 -2 247 -12 0 -4 -29 -8 -65 -7 -37 1 -65
-3 -65 -9 0 -5 -5 -3 -10 5 -9 13 -10 13 -10 0 0 -13 -1 -13 -10 0 -5 8 -10
11 -10 5 0 -6 -57 -10 -151 -10 -83 0 -153 -3 -156 -8 -2 -4 -13 -2 -24 3 -10
6 -19 7 -19 2 0 -4 -33 -8 -72 -7 -41 0 -76 -4 -80 -10 -5 -7 -8 -7 -8 0 0 7
-22 9 -60 5 -33 -3 -60 -2 -60 3 0 4 -6 5 -12 1 -7 -5 -51 -9 -99 -9 -47 -1
-91 -5 -97 -9 -7 -4 -12 -2 -12 6 0 10 -2 10 -9 0 -11 -17 -12 -18 -37 -4 -12
6 -24 8 -28 4 -4 -3 -48 -8 -99 -9 -260 -8 -297 -10 -303 -15 -3 -4 -16 -3
-29 2 -14 5 -26 5 -34 -3 -8 -8 -11 -8 -11 2 0 7 -5 9 -12 4 -18 -11 -58 -12
-58 -1 0 5 -6 6 -12 1 -7 -4 -35 -8 -63 -9 -27 -1 -92 -2 -142 -4 -61 -1 -93
-6 -93 -14 0 -7 -3 -7 -8 -1 -11 15 -32 17 -47 5 -9 -8 -15 -8 -20 0 -4 7 -12
7 -25 0 -13 -7 -21 -7 -25 0 -5 8 -11 7 -21 -1 -11 -9 -14 -9 -14 0 0 7 -5 9
-12 5 -6 -4 -57 -8 -112 -10 -56 -1 -105 -3 -111 -4 -5 -1 -12 -1 -15 0 -17 6
-60 4 -60 -3 0 -5 -8 -3 -17 4 -9 8 -14 9 -11 3 5 -7 -22 -10 -83 -9 -50 0
-95 -2 -101 -6 -6 -4 -23 -3 -38 1 -15 4 -33 4 -41 0 -7 -5 -20 -5 -30 0 -9 5
-20 6 -23 2 -4 -4 -47 -7 -96 -8 -48 -1 -93 -4 -99 -8 -6 -4 -11 -1 -11 6 0 8
-3 9 -8 3 -4 -6 -55 -10 -117 -10 -62 0 -113 -4 -117 -10 -5 -6 -8 -5 -8 2 0
9 -7 10 -25 3 -18 -7 -25 -6 -25 3 0 8 -3 8 -8 2 -9 -14 -95 -13 -104 0 -5 6
-8 5 -8 -3 0 -9 -18 -13 -58 -13 -85 0 -120 -6 -165 -30 -10 -5 -23 -7 -30 -3
-7 4 -9 4 -5 -1 4 -4 -6 -20 -22 -35 -16 -15 -26 -30 -23 -34 3 -3 1 -6 -6 -6
-7 0 -10 -4 -6 -9 3 -5 1 -12 -5 -16 -6 -4 -7 -12 -3 -18 4 -7 9 -21 10 -32 2
-11 8 -22 13 -23 6 -2 10 -9 10 -16 0 -28 115 -72 203 -78 20 -1 37 -7 37 -13
0 -6 3 -6 8 1 9 15 93 14 84 0 -3 -7 0 -6 9 0 16 13 67 13 87 1 6 -5 12 -5 12
0 0 9 57 9 66 0 3 -3 17 -2 30 3 15 6 26 6 30 -1 4 -8 9 -7 15 2 6 9 12 10 17
4 4 -6 84 -11 196 -12 126 -2 193 -6 202 -14 12 -10 13 -8 8 6 -5 12 -4 16 4
11 6 -4 95 -9 196 -11 102 -2 190 -6 195 -9 5 -4 12 -2 16 4 4 6 11 7 17 4 6
-4 58 -7 117 -8 58 -1 111 -4 117 -8 6 -4 14 -4 18 -1 10 11 76 10 76 -1 0 -5
6 -4 13 3 10 8 17 7 27 -2 10 -9 11 -9 6 0 -9 16 -5 16 28 3 19 -7 26 -6 26 3
0 8 4 7 10 -3 6 -10 10 -11 10 -3 0 8 7 10 23 5 12 -4 41 -7 65 -7 23 0 42 -2
43 -5 6 -31 5 -100 -1 -89 -5 7 -6 17 -3 22 3 5 -4 4 -16 -2 -24 -13 -28 -23
-6 -15 9 4 15 0 15 -9 0 -8 5 -17 12 -19 25 -9 -1 -36 -31 -34 -17 1 -31 0
-31 -3 0 -3 -30 -6 -68 -6 -37 1 -73 -3 -79 -8 -9 -6 -13 -5 -13 2 0 7 -5 9
-12 5 -17 -11 -78 -11 -78 -1 0 4 -6 5 -12 0 -21 -13 -78 -13 -78 0 0 8 -3 8
-9 -1 -5 -9 -37 -14 -102 -15 -52 -2 -100 -6 -106 -10 -7 -5 -13 -4 -13 2 0
10 -31 7 -50 -4 -6 -3 -10 0 -10 7 0 10 -2 10 -9 -1 -6 -9 -10 -10 -16 -2 -4
7 -12 8 -18 3 -14 -10 -27 -10 -44 1 -7 5 -13 4 -13 -1 0 -6 -33 -11 -72 -12
-169 -4 -204 -6 -215 -13 -8 -5 -13 -3 -13 3 0 6 -5 8 -12 4 -17 -11 -50 -10
-67 1 -9 5 -12 4 -8 -2 4 -6 -4 -11 -21 -11 -49 0 -82 -6 -82 -16 0 -5 -3 -6
-6 -3 -10 9 -84 -52 -84 -69 0 -8 -5 -14 -11 -14 -8 0 -8 -5 1 -15 9 -11 10
-15 1 -15 -23 0 56 -94 79 -95 3 0 12 -5 20 -10 8 -5 31 -10 50 -11 19 -1 35
-3 35 -4 0 -1 90 -4 200 -6 110 -2 233 -5 273 -6 43 -2 72 1 72 7 0 7 3 7 8 0
4 -5 34 -10 67 -9 33 0 63 -4 68 -10 5 -8 10 -7 16 2 4 8 12 14 16 14 4 0 12
-6 16 -14 5 -7 9 -8 9 -3 0 14 38 17 45 4 4 -5 14 -5 26 1 14 8 19 7 19 -2 0
-10 2 -10 8 -1 5 8 13 9 22 3 9 -5 19 -5 27 2 9 7 13 7 13 0 0 -6 13 -7 34 -2
19 4 38 5 41 2 9 -10 65 -9 65 1 0 4 6 5 13 0 6 -4 89 -8 182 -10 314 -4 355
-6 355 -17 0 -8 3 -8 8 0 6 9 174 13 192 4 3 -1 10 -1 15 0 6 1 48 1 95 0 47
-1 183 -3 302 -5 120 -2 222 -6 228 -10 5 -3 10 -1 10 6 0 8 4 8 15 -1 12 -10
15 -10 15 1 0 9 3 10 8 4 4 -6 53 -10 112 -10 96 0 119 -5 120 -27 0 -5 -5 -8
-11 -8 -5 0 -8 4 -5 8 3 5 -1 9 -9 9 -13 0 -12 -4 2 -19 11 -12 12 -18 3 -18
-7 0 -10 -7 -6 -16 3 -9 -1 -25 -9 -37 -13 -19 -20 -17 -16 6 1 5 -3 6 -8 2
-6 -3 -8 -11 -5 -19 3 -7 -2 -13 -10 -13 -8 0 -12 5 -9 10 4 6 1 7 -8 1 -16
-10 -31 -11 -151 -15 -56 -2 -84 -7 -80 -14 3 -5 -1 -4 -10 3 -12 10 -18 10
-23 1 -6 -8 -10 -7 -16 2 -5 8 -9 9 -9 3 0 -11 -51 -11 -69 0 -5 4 -12 2 -15
-2 -3 -5 -23 -8 -46 -7 -22 1 -40 -1 -40 -4 0 -3 -33 -6 -73 -5 -39 0 -76 -2
-81 -4 -5 -3 -39 -6 -75 -6 -36 -1 -71 -4 -77 -8 -6 -4 -14 -4 -18 -1 -11 11
-36 12 -36 1 0 -7 -5 -7 -13 1 -8 6 -17 8 -21 4 -6 -7 -115 -14 -243 -16 -34
-1 -60 -4 -58 -7 2 -3 -35 -5 -82 -4 -46 0 -87 -4 -90 -8 -2 -5 -11 -4 -18 2
-9 8 -15 8 -20 0 -4 -7 -12 -7 -24 0 -10 5 -21 6 -25 3 -7 -7 -35 -10 -149
-14 -38 -2 -71 -7 -73 -11 -3 -5 -10 -6 -15 -3 -5 4 -9 2 -9 -3 0 -5 -8 -12
-18 -14 -26 -7 -26 -55 1 -81 28 -28 40 -30 160 -31 53 0 97 -4 97 -9 0 -4 6
-5 13 0 16 10 29 11 48 2 8 -4 21 -4 29 1 9 5 19 5 27 -2 9 -7 13 -7 13 1 0 9
5 9 20 1 13 -7 20 -7 20 -1 0 7 9 7 26 1 18 -7 23 -7 18 1 -5 8 -1 8 13 0 14
-7 23 -7 31 1 9 9 12 9 12 1 0 -9 19 -11 40 -3 3 1 10 1 15 0 35 -9 85 -7 85
3 0 8 3 9 8 1 10 -14 82 -15 82 0 0 6 4 5 9 -3 5 -8 16 -11 24 -8 9 3 18 1 21
-6 3 -9 5 -9 5 0 1 7 8 10 16 7 8 -4 23 0 32 7 9 8 14 9 10 3 -10 -17 25 -19
320 -19 145 0 263 -4 263 -8 0 -4 9 -3 20 3 15 8 20 8 20 -2 0 -10 2 -10 9 1
7 11 9 11 13 0 4 -12 7 -12 21 0 10 7 17 10 17 5 0 -11 170 -11 187 -1 6 4 14
3 18 -2 3 -6 21 -9 40 -7 19 1 40 -1 47 -5 7 -4 17 -5 22 -1 6 3 47 5 91 3 44
-2 123 -4 175 -5 52 -1 100 -5 107 -9 6 -4 14 -3 17 2 5 8 52 8 81 1 6 -1 12
-1 15 0 16 6 62 4 67 -3 2 -4 11 -3 19 4 11 9 14 9 14 0 0 -7 5 -9 12 -5 14 9
76 10 84 1 4 -3 15 -2 25 3 12 7 20 7 24 0 4 -7 12 -7 24 0 10 5 22 6 25 2 4
-4 77 -7 162 -8 85 -1 157 -4 160 -7 3 -3 17 -2 30 3 17 7 24 6 24 -2 0 -9 3
-9 12 0 7 7 17 8 30 1 13 -7 18 -6 18 3 0 8 3 9 8 3 9 -13 55 -14 64 0 5 6 8
6 8 0 0 -5 21 -10 47 -9 27 1 54 -4 62 -10 11 -8 13 -8 8 0 -8 13 174 11 195
-2 6 -4 8 -3 4 4 -8 14 46 11 56 -3 5 -6 8 -5 8 2 0 7 6 10 13 7 8 -3 84 -6
170 -7 86 -2 159 -6 163 -10 5 -4 -3 -6 -17 -3 -13 2 -30 -1 -37 -7 -9 -7 -16
-8 -20 0 -4 5 -16 8 -27 6 -19 -3 -132 -9 -341 -17 -50 -2 -97 -7 -104 -11 -9
-6 -11 -4 -5 4 6 10 3 11 -12 3 -11 -6 -25 -7 -33 -2 -8 5 -21 5 -29 1 -9 -5
-42 -8 -73 -7 -32 1 -58 -1 -58 -4 0 -3 -35 -5 -77 -4 -43 0 -84 -4 -90 -9 -9
-6 -13 -5 -13 3 0 10 -3 10 -15 0 -10 -8 -15 -9 -15 -1 0 7 -8 8 -25 1 -17 -6
-25 -6 -25 1 0 6 -5 7 -12 2 -7 -4 -35 -8 -63 -8 -27 0 -56 -4 -62 -8 -7 -5
-13 -4 -13 2 0 6 -9 8 -22 3 -13 -4 -45 -7 -73 -6 -27 0 -58 -4 -69 -9 -14 -7
-16 -6 -11 4 6 9 3 10 -11 5 -16 -6 -218 -18 -316 -18 -17 0 -25 -5 -21 -11 4
-6 1 -7 -8 -1 -18 11 -69 12 -91 1 -12 -5 -18 -4 -18 4 0 7 -4 8 -12 2 -7 -5
-28 -8 -45 -7 -25 2 -33 -2 -33 -14 0 -15 2 -15 10 -2 7 11 10 11 10 2 0 -7 4
-10 10 -7 5 3 63 7 127 8 65 2 124 7 132 11 9 6 12 5 8 -1 -6 -10 90 -8 121 2
6 2 12 -1 12 -8 0 -7 3 -8 8 -2 4 6 43 10 87 10 44 0 83 4 87 10 5 7 8 7 8 0
0 -11 76 -13 86 -2 4 3 14 2 24 -3 10 -5 20 -6 24 -3 11 11 35 12 42 2 3 -5
11 -6 17 -2 19 12 101 12 116 -1 12 -9 13 -8 7 2 -6 11 1 13 30 12 22 -1 41
-1 44 0 3 1 80 3 173 4 92 2 170 6 174 9 3 4 13 2 23 -3 10 -5 20 -7 23 -3 11
11 77 10 77 -1 0 -6 4 -5 9 3 5 8 14 10 21 6 7 -4 16 -2 21 6 5 8 9 10 9 4 0
-10 87 -13 106 -4 5 3 60 4 122 4 61 -1 112 3 112 8 0 5 5 5 13 0 14 -11 47
-13 47 -3 0 4 7 7 15 7 8 0 15 -4 15 -8 0 -9 20 -6 38 4 7 5 12 3 12 -5 0 -10
2 -10 9 1 6 9 11 10 15 2 4 -6 13 -8 19 -4 7 4 62 8 124 9 61 1 116 5 122 8 5
4 12 2 16 -4 4 -6 11 -7 17 -4 5 4 42 7 82 8 39 1 76 5 83 9 6 4 14 3 18 -3 4
-7 12 -7 25 0 13 7 21 7 26 -1 4 -8 9 -7 15 2 5 8 9 10 9 4 0 -5 11 -10 24
-10 13 0 23 2 21 5 -2 3 68 5 156 5 87 0 159 3 159 7 0 3 9 4 21 1 12 -4 25 0
30 8 6 10 9 10 9 2 0 -8 11 -12 33 -9 28 3 32 7 32 32 0 18 -5 28 -12 26 -7
-1 -13 1 -13 5 0 5 -53 8 -118 8 -64 0 -132 3 -149 6 -18 4 -33 3 -33 -2 0 -6
-7 -6 -17 -1 -10 5 -28 8 -41 6 -16 -3 -21 0 -16 8 5 8 3 8 -7 2 -19 -12 -89
-12 -89 0 0 6 -5 5 -12 -2 -7 -7 -17 -8 -29 -2 -12 7 -20 6 -24 0 -4 -6 -12
-7 -18 -3 -16 10 -38 10 -58 1 -9 -4 -20 -4 -24 0 -3 4 -39 7 -79 8 -39 0 -77
4 -84 8 -7 4 -12 2 -12 -4 0 -6 -5 -8 -11 -5 -6 4 -56 8 -112 10 -56 1 -106 3
-112 5 -5 1 -12 1 -15 0 -20 -7 -40 -7 -40 2 0 6 -8 7 -17 3 -10 -4 -22 -7
-28 -7 -85 7 -184 8 -180 1 3 -4 -7 -2 -22 6 -15 8 -29 11 -31 7 -1 -4 -26 -6
-55 -3 -28 4 -91 6 -139 6 -49 0 -88 4 -88 9 0 6 -5 5 -12 -2 -7 -7 -17 -8
-30 -1 -13 7 -18 6 -18 -3 0 -9 -3 -9 -12 0 -8 8 -17 8 -31 1 -15 -9 -18 -8
-11 3 6 11 5 11 -9 -1 -9 -7 -17 -9 -17 -4 0 4 -44 9 -97 10 -221 4 -309 9
-322 17 -9 6 -12 5 -7 -2 4 -7 -1 -10 -14 -9 -11 1 -20 6 -20 12 0 5 -4 4 -9
-4 -6 -9 -11 -10 -15 -2 -5 8 -13 8 -27 1 -14 -8 -19 -7 -19 1 0 8 -4 8 -15
-1 -8 -7 -15 -8 -15 -4 0 5 -42 10 -92 11 -263 3 -408 9 -408 17 0 5 -6 4 -12
-1 -15 -11 -28 -11 -45 0 -6 4 -15 3 -18 -3 -5 -8 -11 -7 -21 1 -11 9 -17 9
-29 -1 -12 -10 -15 -9 -15 5 0 14 9 16 58 15 31 -2 59 -2 62 0 19 7 80 4 80
-4 0 -7 3 -8 8 -1 4 6 35 10 69 10 35 0 63 2 63 5 0 3 37 5 83 4 45 0 88 4 96
10 11 8 13 8 8 -1 -6 -9 1 -11 25 -7 18 3 43 6 56 8 12 2 22 -1 22 -6 0 -5 7
-5 18 0 9 5 47 8 85 8 37 -1 67 1 67 4 0 3 40 5 89 4 61 0 88 3 84 10 -4 7 -1
6 6 0 8 -7 25 -9 46 -4 22 5 35 4 38 -3 2 -7 9 -7 18 -2 8 5 48 10 89 11 149
4 205 9 212 19 5 6 8 6 8 -1 0 -12 72 -10 91 2 5 3 9 0 9 -6 0 -6 5 -8 13 -3
20 12 37 12 37 0 0 -8 3 -8 8 -2 6 9 53 13 257 18 44 1 83 7 87 12 5 6 8 5 8
-3 0 -7 5 -10 10 -7 6 4 59 8 120 10 60 2 114 6 119 10 6 3 11 1 11 -5 0 -6 5
-8 12 -4 7 4 46 8 88 9 41 1 86 5 99 9 13 5 21 4 18 0 -3 -5 11 -8 31 -7 21 1
37 2 37 3 0 3 90 8 216 13 59 2 111 7 117 11 6 3 13 2 16 -3 4 -5 19 -6 34 -3
35 9 54 9 71 -2 9 -6 12 -5 8 1 -5 8 42 12 223 16 14 0 28 5 32 11 5 8 8 7 8
-1 0 -12 30 -10 52 3 7 5 8 3 3 -5 -6 -10 -3 -11 14 -2 11 7 21 8 21 4 0 -9
40 -10 56 -1 5 2 44 4 86 4 43 -1 78 1 78 4 0 3 46 5 103 5 56 0 105 4 109 10
5 6 8 5 8 -2 0 -9 7 -10 23 -4 12 4 47 7 77 6 30 -1 61 3 68 8 8 6 12 6 12 -2
0 -7 5 -9 10 -6 6 4 59 8 119 9 59 2 114 7 121 11 9 6 11 4 5 -5 -6 -9 -4 -11
5 -5 11 7 53 15 88 18 6 0 12 4 12 8 0 4 9 11 20 14 11 4 18 11 15 16 -4 5 -2
9 3 9 5 0 13 10 19 22 13 30 -13 84 -44 93 -13 3 -23 10 -23 16 0 6 -5 7 -10
4 -6 -4 -16 -2 -23 3 -7 5 -66 10 -132 12 -244 5 -271 6 -284 15 -10 5 -12 4
-7 -3 4 -7 3 -12 -3 -12 -5 0 -13 5 -16 10 -4 6 -12 7 -18 3 -18 -11 -37 -12
-37 -2 0 10 -28 8 -47 -4 -24 -15 -22 11 2 27 29 19 38 20 30 4 -4 -7 2 -2 13
11 12 15 24 21 32 16 8 -5 11 -4 6 3 -6 10 27 36 36 27 2 -2 5 7 6 20 2 26 -6
34 -38 40 -12 2 -18 0 -15 -6 4 -5 12 -6 18 -2 7 4 6 -1 -2 -11 -11 -13 -16
-14 -22 -4 -8 12 -13 5 -11 -14 1 -3 -5 -9 -14 -12 -8 -3 -12 -2 -9 3 3 5 1
13 -5 16 -6 4 -10 3 -9 -2 3 -18 -3 -47 -8 -35 -2 6 -12 12 -21 11 -11 0 -12
-2 -4 -6 6 -2 12 -9 12 -14 0 -4 -7 -5 -17 -2 -12 5 -14 3 -8 -8 7 -11 5 -11
-10 1 -17 14 -18 13 -12 -3 6 -15 3 -17 -14 -12 -16 6 -20 4 -14 -6 5 -8 5
-11 0 -7 -4 4 -14 1 -22 -7 -16 -17 -82 -17 -79 -1 2 6 1 8 -1 3 -3 -4 -9 -5
-14 -1 -5 3 -12 -2 -15 -10 -3 -9 -11 -13 -17 -9 -6 4 -28 6 -49 4 -22 -1 -38
2 -38 8 0 6 -4 11 -10 11 -5 0 -7 -8 -4 -17 5 -14 4 -15 -4 -4 -6 8 -19 11
-33 7 -18 -4 -17 -2 5 8 19 9 24 15 15 18 -8 3 -26 -4 -41 -14 -16 -11 -28
-15 -28 -9 0 6 5 11 11 11 5 0 7 5 4 10 -5 8 -11 7 -21 -1 -8 -7 -14 -7 -14
-1 0 14 28 23 35 12 4 -6 11 -10 16 -10 6 0 8 4 5 8 -3 5 13 8 36 7 32 -1 42
2 46 17 2 10 11 17 20 16 8 -2 17 3 20 11 3 9 -2 11 -19 7 -13 -3 -18 -3 -11
0 10 5 10 9 0 22 -7 9 -8 13 -2 9 13 -8 38 18 31 31 -3 4 14 7 39 7 24 -1 44
2 44 7 0 5 6 6 12 2 16 -10 48 -13 48 -4 0 3 18 6 40 6 23 0 37 -3 33 -9 -4
-6 -1 -7 8 -2 23 15 101 16 92 2 -4 -7 0 -6 10 2 14 11 20 11 32 1 13 -11 14
-10 10 1 -4 11 17 14 116 15 66 1 134 5 150 8 20 4 28 2 23 -5 -4 -8 -1 -8 12
-2 11 5 63 9 116 9 54 -1 98 1 98 4 0 3 32 5 70 5 39 -1 70 3 70 8 0 6 5 6 13
0 12 -9 83 -9 125 1 13 3 22 0 22 -7 0 -8 3 -8 8 -2 4 6 23 10 42 10 19 0 52
2 72 6 20 3 42 2 50 -2 7 -5 16 -3 20 4 6 9 8 9 8 -1 0 -8 5 -10 12 -6 7 4 39
9 73 10 74 3 101 9 131 29 13 8 24 12 24 8 0 -13 52 42 63 67 17 42 6 110 -19
110 -8 0 -14 7 -14 15 0 8 -7 15 -15 15 -8 0 -15 5 -15 12 0 6 -3 9 -6 6 -3
-4 -17 0 -31 7 -15 8 -30 12 -35 9 -4 -3 -8 -1 -8 3 0 5 -30 9 -66 10 -36 1
-69 4 -72 7 -3 3 -11 1 -19 -5 -7 -6 -13 -8 -13 -3 0 5 -39 8 -87 8 -53 -1
-94 3 -102 10 -10 7 -13 7 -8 0 7 -12 -110 -13 -130 -1 -7 4 -14 3 -17 -2 -7
-10 -25 -9 -43 2 -8 5 -13 3 -13 -4 0 -7 -5 -8 -12 -3 -16 11 -39 11 -55 1 -7
-5 -13 -4 -13 1 0 7 -44 9 -60 2 -3 -1 -9 -1 -15 1 -5 1 -59 4 -120 5 -60 1
-110 3 -110 4 0 6 -68 3 -72 -4 -3 -4 -9 -2 -14 5 -8 12 -11 11 -19 -1 -5 -8
-10 -10 -10 -5 0 13 -90 15 -90 2 0 -6 -5 -6 -12 0 -7 6 -26 8 -41 6 -16 -2
-26 0 -24 4 3 5 -3 9 -13 9 -10 0 -17 -4 -14 -8 2 -4 -5 -6 -16 -5 -11 1 -20
5 -20 9 0 5 -10 4 -21 -3 -16 -8 -20 -8 -14 1 6 9 2 9 -14 1 -16 -9 -21 -9
-21 0 0 7 -5 8 -12 3 -12 -8 -34 -10 -48 -4 -3 1 -34 3 -70 5 -80 3 -81 3 -77
13 1 4 -1 8 -6 9 -4 2 -21 10 -38 19 -17 8 -29 12 -26 7 8 -12 -166 -10 -175
2 -5 7 -8 7 -8 0 0 -5 -25 -10 -55 -11 -42 0 -52 3 -44 12 7 8 6 15 -2 20 -7
4 -10 3 -7 -2 8 -12 -12 -29 -34 -30 -10 -1 -30 -2 -44 -3 -14 0 -23 -5 -20
-9 2 -4 -6 -8 -19 -8 -13 0 -21 4 -19 8 9 14 -14 9 -29 -7 -13 -13 -16 -12
-22 3 -6 16 -7 16 -20 -1 -10 -14 -14 -15 -18 -5 -4 11 -7 10 -15 -1 -7 -9
-12 -10 -16 -2 -4 6 -12 9 -17 5 -6 -3 -29 9 -52 27 -23 18 -36 26 -28 16 15
-19 16 -18 -49 -21 -21 -1 -40 5 -48 14 -8 8 -11 9 -7 3 3 -7 1 -14 -4 -14
-21 -3 -26 -4 -41 -14 -8 -5 -26 -10 -39 -11 -20 -2 -22 -1 -11 6 18 12 3 12
-25 1 -11 -5 -30 -5 -42 0 -13 5 -23 5 -23 0 0 -5 -15 -6 -32 -2 -18 4 -40 7
-48 6 -15 -1 -50 31 -50 46 0 9 20 6 39 -5 10 -7 12 -5 6 3 -5 9 2 12 26 11
19 -1 36 -1 39 0 3 1 28 2 57 3 28 1 55 5 58 9 4 4 17 1 28 -7 13 -9 27 -11
42 -5 13 5 26 6 29 3 3 -4 6 -2 6 3 0 5 9 10 20 10 11 0 20 -4 20 -8 0 -5 8
-4 18 1 13 7 23 6 30 -1 9 -9 12 -9 12 0 0 8 7 9 26 2 15 -6 23 -6 19 0 -3 5
11 8 34 6 23 -2 42 2 45 8 3 8 5 8 5 0 1 -8 12 -9 34 -5 23 5 35 3 45 -8 9
-11 11 -12 10 -3 -2 11 23 14 118 16 66 2 126 6 132 10 7 4 12 2 12 -4 0 -7 5
-8 13 -3 18 12 111 11 119 -1 5 -7 8 -7 8 2 0 6 7 12 16 12 9 0 12 -5 8 -12
-4 -7 3 -4 16 7 l23 20 -6 -20 c-6 -17 -5 -18 5 -5 12 14 63 18 243 20 6 0 21
-1 35 -3 14 -2 31 1 38 6 7 6 12 6 12 0 0 -5 7 -10 15 -10 8 0 15 3 15 7 0 3
9 6 20 7 13 1 18 -2 14 -9 -5 -7 -2 -8 7 -2 14 9 50 11 229 17 47 1 91 6 98
10 7 5 12 3 12 -5 0 -10 2 -10 9 1 7 11 9 11 13 0 4 -12 7 -12 21 0 12 9 17
10 17 2 0 -8 6 -9 18 -2 26 14 34 14 43 -1 5 -7 9 -8 9 -3 0 12 50 13 69 1 9
-6 12 -5 8 1 -5 9 57 13 250 16 33 1 49 5 45 12 -4 7 -1 7 9 -1 13 -9 30 -11
44 -4 13 6 32 6 48 -2 9 -5 17 -5 17 -1 0 8 126 14 273 13 48 0 66 4 61 12 -5
7 -3 8 7 2 18 -11 109 -12 109 0 0 5 6 4 13 -2 7 -6 18 -8 24 -4 6 4 41 7 77
7 36 -1 66 3 66 8 0 4 5 5 10 2 6 -4 18 -1 27 7 9 7 19 12 22 12 14 -3 38 12
64 39 27 31 31 40 28 66 -2 7 2 10 7 7 6 -3 2 11 -8 32 -17 34 -69 85 -91 88
-5 1 -10 2 -11 4 -7 5 -49 12 -101 15 -32 3 -62 7 -67 10 -6 4 -10 0 -10 -7 0
-9 -3 -9 -10 2 -5 8 -10 10 -10 4 0 -6 -19 -8 -52 -5 -29 4 -137 6 -240 6
-119 0 -188 4 -188 10 0 7 -3 7 -8 0 -10 -14 -32 -17 -32 -4 0 8 -4 8 -14 0
-10 -8 -16 -9 -21 -1 -4 7 -12 7 -25 0 -11 -6 -21 -6 -24 -1 -3 5 -21 5 -41 1
-24 -5 -35 -4 -35 4 0 6 -5 4 -10 -4 -8 -12 -10 -12 -10 -1 0 10 -3 11 -13 2
-8 -6 -17 -8 -21 -4 -11 11 -60 10 -68 -2 -5 -6 -11 -5 -17 3 -4 8 -11 13 -15
13 -31 -4 -33 0 -28 69 4 60 2 71 -13 77 -28 10 -101 -35 -156 -96 l-49 -55
-171 3 c-94 1 -179 4 -190 6 -10 2 -19 0 -19 -5 0 -4 -15 -5 -32 -1 -18 4 -50
6 -70 5 -22 -1 -38 3 -38 10 0 7 -3 7 -8 1 -9 -13 -93 -15 -85 -2 4 6 1 7 -8
1 -20 -12 -59 -13 -66 -1 -3 5 -9 4 -13 -4 -7 -10 -12 -10 -23 -1 -7 7 -17 9
-21 5 -11 -11 -70 -9 -78 2 -5 6 -8 6 -8 -2 0 -8 -9 -9 -29 -3 -15 4 -34 4
-42 -1 -8 -5 -16 -3 -20 3 -6 9 -11 8 -22 -1 -12 -9 -16 -9 -19 0 -3 9 -9 9
-27 -1 -19 -10 -22 -10 -15 2 6 11 5 11 -8 0 -9 -7 -18 -9 -21 -5 -3 4 -75 8
-160 8 -129 0 -154 2 -149 14 4 10 1 12 -7 6 -20 -12 -4 33 28 79 24 34 32 39
74 41 32 1 44 -1 40 -9 -5 -8 -3 -8 8 0 8 5 24 9 37 8 12 0 22 3 22 8 0 5 5 6
11 2 13 -8 109 -11 109 -4 0 3 39 5 88 5 48 0 91 2 97 4 19 10 50 8 58 -3 5
-8 9 -8 15 0 4 6 41 10 85 10 44 -1 80 1 82 4 2 3 34 4 72 4 37 -1 74 4 82 10
11 8 13 8 7 -1 -9 -16 -1 -16 25 -3 14 8 19 7 19 -1 0 -8 4 -8 15 1 11 9 15 9
15 1 0 -7 5 -9 12 -5 19 12 48 12 48 0 0 -7 3 -8 8 -1 4 6 32 10 62 10 30 0
76 3 102 6 26 3 54 1 63 -3 9 -6 15 -5 15 1 0 5 12 8 26 5 14 -3 31 0 38 5 6
5 17 6 24 2 7 -4 31 -5 55 -3 23 2 79 5 125 5 46 1 82 6 82 11 0 6 5 5 12 -2
7 -7 17 -8 30 -1 13 7 18 6 18 -3 0 -9 3 -9 10 2 9 13 10 13 10 0 0 -9 3 -11
8 -5 4 6 39 10 77 10 39 -1 80 3 93 7 12 4 22 4 22 0 0 -8 71 -8 86 0 14 8 88
4 103 -6 9 -6 12 -5 8 1 -9 14 16 23 33 13 8 -5 18 -6 24 -3 5 4 35 6 65 6 31
0 62 4 69 10 6 5 12 5 12 0 0 -13 38 -14 46 -1 4 7 9 6 14 -2 6 -9 13 -9 29
-1 16 9 21 9 21 0 0 -9 3 -9 14 0 10 8 16 9 21 1 4 -6 13 -7 23 -1 9 4 33 7
52 6 19 -1 38 3 42 9 5 7 8 7 8 1 0 -13 78 -7 86 6 3 5 14 9 25 9 11 0 17 5
14 10 -3 6 -2 10 3 10 27 0 18 62 -12 82 -6 4 5 8 24 9 19 0 49 3 65 5 17 2
75 11 130 19 104 15 122 16 348 8 l137 -4 0 30 c0 21 -5 31 -15 31 -8 0 -23 4
-33 9 -16 10 -108 28 -184 38 -21 3 -38 9 -38 13 0 5 -9 7 -20 5 -14 -3 -43
15 -89 55 -70 60 -175 132 -183 125 -2 -2 -5 4 -6 13 -1 9 -3 26 -4 37 -2 12
2 19 10 17 8 -1 11 2 7 7 -7 12 -35 3 -35 -12 0 -6 -6 -2 -14 8 -8 11 -12 25
-9 32 3 7 -2 13 -12 13 -9 0 -13 -4 -10 -10 3 -5 1 -10 -5 -10 -7 0 -10 7 -6
15 3 8 -2 19 -12 24 -9 5 -13 13 -9 18 5 4 15 0 22 -11 13 -18 14 -18 12 2 0
11 -5 18 -9 16 -4 -3 -8 0 -8 7 0 10 -3 10 -12 1 -16 -16 -25 -15 -31 2 -4 11
-1 13 11 10 14 -5 13 -3 -2 10 -11 9 -16 16 -12 16 5 0 3 6 -3 14 -9 10 -9 16
-1 21 8 5 8 11 1 19 -6 7 -8 16 -4 19 3 4 -9 7 -28 8 -34 1 -117 4 -279 12
l-85 5 3 28 c2 16 7 40 11 54 5 14 17 62 27 108 10 45 21 82 24 83 3 1 55 2
117 3 62 1 115 5 119 9 4 4 13 2 20 -3 19 -16 47 16 34 39 -5 10 -7 21 -4 24
3 3 2 11 -2 18 -4 7 -7 27 -7 43 0 17 -4 37 -10 44 -5 6 -7 12 -4 12 3 0 1 17
-5 38 -5 20 -11 56 -13 79 -2 24 -6 47 -10 53 -3 6 -9 23 -11 38 -3 15 -10 45
-16 67 -6 22 -11 47 -12 55 -2 8 -5 22 -8 30 -3 8 -10 33 -16 55 l-11 40 37
-41 c20 -23 46 -59 57 -80 11 -22 22 -41 26 -44 3 -3 8 -13 12 -23 4 -10 11
-15 17 -12 12 8 13 69 1 93 -5 9 -17 36 -27 60 -9 23 -28 54 -42 67 -25 25
-17 33 16 16 9 -5 33 -16 52 -24 86 -35 100 -42 100 -49 0 -3 14 -9 30 -13 17
-4 30 -10 30 -13 0 -4 18 -16 40 -26 22 -11 40 -23 40 -27 0 -4 9 -11 21 -14
12 -4 29 -13 38 -20 124 -103 132 -108 144 -96 8 8 8 14 2 19 -6 4 -26 32 -45
62 -70 111 -142 181 -260 252 -54 33 -132 50 -226 51 -52 1 -94 2 -94 3 0 2
38 22 115 62 22 12 63 30 90 42 28 11 61 27 75 34 14 7 50 19 80 26 30 7 66
17 80 23 14 5 34 11 45 13 11 2 53 9 93 15 39 7 72 16 72 21 0 8 -38 27 -70
35 -8 1 -72 3 -141 4 -189 1 -294 -37 -406 -148 -35 -33 -63 -59 -63 -55 0 5
15 55 28 92 8 23 8 23 16 53 5 15 12 27 17 27 5 0 9 7 9 16 0 20 81 184 91
184 4 0 10 12 14 27 3 15 10 30 14 33 10 8 111 139 111 145 0 12 -48 3 -66
-13 -10 -9 -32 -26 -49 -36 -79 -51 -205 -199 -220 -259 -4 -15 -11 -30 -16
-33 -5 -3 -9 -14 -9 -25 0 -11 -4 -17 -10 -14 -5 3 -10 17 -10 31 0 13 -4 24
-10 24 -5 0 -10 9 -10 20 0 13 -7 20 -20 20 -13 0 -18 5 -14 15 4 8 2 15 -4
15 -5 0 -13 15 -17 33 -4 17 -9 38 -10 44 -5 21 -42 63 -49 56 -9 -9 -33 -14
-76 -16 -19 -1 -39 -5 -45 -8 -15 -10 -233 -11 -248 -2 -6 4 -96 8 -198 9
-103 1 -194 4 -202 7 -9 3 -18 1 -21 -6 -2 -7 -5 -8 -5 -1 -1 6 -16 9 -36 8
-21 -2 -35 1 -35 8 0 9 -3 9 -12 0 -6 -6 -18 -8 -27 -4 -9 4 -50 8 -91 7 -41
0 -78 5 -82 10 -5 6 -8 5 -8 -3 0 -7 -5 -10 -11 -7 -6 4 -40 9 -76 11 -36 2
-68 6 -71 9 -2 2 -13 0 -23 -5 -11 -6 -20 -6 -23 -1 -4 5 -17 8 -31 6 -14 -1
-25 1 -25 4 0 3 -28 7 -63 8 -34 0 -89 4 -122 9 -33 4 -72 7 -87 7 -16 1 -28
5 -28 11 0 6 -5 4 -10 -4 -5 -8 -10 -10 -10 -5 0 6 -24 11 -52 13 -29 1 -64 5
-78 8 -14 3 -47 7 -75 8 -27 2 -66 7 -85 11 -19 4 -52 8 -72 9 -36 2 -61 11
-35 14 6 1 39 4 72 8 33 4 75 7 93 7 17 0 32 4 32 8 0 5 16 7 36 5 19 -1 37 1
40 5 2 4 14 6 26 4 11 -3 26 -1 32 2 5 4 26 7 46 8 19 0 41 4 48 8 7 5 12 3
12 -4 0 -7 10 -5 27 6 17 12 28 14 31 7 2 -7 11 -8 25 -3 12 5 35 7 50 6 15
-2 27 0 27 5 0 4 14 6 30 4 17 -2 30 0 30 4 0 4 15 7 33 8 36 0 162 12 162 15
0 1 48 7 115 13 25 2 50 4 57 5 7 1 10 8 7 16 -3 8 0 17 8 20 8 3 109 7 225 9
115 1 215 6 223 11 9 5 11 4 6 -3 -5 -8 2 -10 21 -6 15 2 114 6 218 8 155 3
189 6 187 17 -2 8 -7 16 -11 19 -7 5 -17 25 -20 45 -2 6 -9 17 -17 26 -8 9
-11 19 -7 22 3 4 2 7 -4 7 -6 0 -18 18 -27 40 -9 22 -21 40 -28 40 -9 0 -8 3
2 10 9 6 10 10 3 10 -6 0 -10 9 -8 20 2 12 -5 26 -18 35 -12 8 -18 15 -14 15
5 0 2 7 -5 15 -23 25 -33 39 -47 67 -8 15 -23 37 -33 48 -10 11 -17 22 -16 24
2 2 -9 18 -24 34 -14 17 -24 33 -21 36 3 3 -2 8 -11 12 -9 3 -16 10 -16 15 0
5 -9 19 -20 31 -10 13 -19 26 -19 31 0 4 -12 20 -26 35 -14 15 -32 34 -40 43
-8 9 -15 21 -15 28 0 7 -4 9 -10 6 -5 -3 -10 -1 -10 4 0 10 -26 44 -62 83 -10
10 -18 20 -18 21 0 9 -127 144 -265 283 -149 150 -150 151 -128 168 12 9 28
16 35 16 10 0 13 55 12 283 -1 155 -2 288 -3 294 -1 10 -105 12 -463 12 l-462
0 -73 38 c-40 21 -73 42 -73 46 0 5 -7 7 -15 3 -8 -3 -15 -2 -15 2 0 4 -24 18
-52 31 -29 13 -55 28 -58 32 -3 5 -15 10 -27 12 -12 1 -28 8 -35 15 -8 6 -18
9 -21 5 -4 -3 -7 -1 -7 5 0 7 -3 11 -7 10 -5 -1 -25 6 -45 15 -21 9 -55 25
-75 34 -21 9 -40 17 -43 18 -3 0 -15 6 -26 13 -12 6 -24 8 -28 5 -3 -3 -6 -1
-6 6 0 6 -6 11 -12 10 -7 -1 -25 3 -40 9 -16 7 -40 17 -55 24 -16 6 -33 10
-40 9 -6 -1 -14 3 -18 9 -3 5 -17 10 -31 10 -13 0 -24 5 -24 10 0 6 -11 10
-24 10 -14 0 -28 5 -31 10 -4 6 -12 10 -18 9 -7 -1 -20 1 -29 4 -10 4 -26 10
-35 14 -10 3 -22 5 -26 4 -4 0 -16 3 -26 8 -19 11 -55 20 -108 28 -21 3 -30 9
-26 17 3 6 3 8 -1 5 -4 -4 -28 -2 -54 3 -90 18 -118 24 -160 37 -18 5 -35 10
-37 10 -3 0 -27 3 -53 7 -26 5 -53 7 -59 6 -7 -2 -13 1 -13 6 0 4 -20 9 -44
11 -25 1 -55 4 -68 7 -13 3 -39 7 -58 9 -19 2 -35 4 -35 5 0 1 -10 3 -22 4
-13 2 -26 5 -29 9 -3 3 -17 2 -30 -3 -13 -5 -24 -6 -24 -2 0 8 0 8 -115 16
-44 2 -80 5 -80 6 0 8 -561 20 -570 12z m-120 -378 c28 -2 75 -6 105 -8 30 -3
55 -6 55 -7 0 -2 54 -9 95 -12 19 -1 40 -6 47 -10 6 -4 14 -3 17 2 3 5 20 4
40 -3 18 -6 52 -11 75 -10 22 0 41 -2 41 -6 0 -4 17 -8 38 -8 44 -1 84 -6 97
-13 6 -3 25 -5 43 -4 34 1 43 -10 15 -19 -10 -3 -43 -8 -73 -11 -30 -3 -64 -8
-75 -12 -11 -3 -38 -7 -60 -9 -22 -1 -49 -4 -61 -7 -11 -3 -41 -6 -65 -8 -24
-1 -52 -6 -61 -11 -12 -6 -18 -5 -18 2 0 7 -5 8 -12 3 -7 -4 -31 -9 -53 -11
-61 -4 -65 -5 -65 -11 0 -3 -29 -6 -65 -5 -36 1 -65 -2 -65 -5 0 -4 -27 -7
-60 -8 l-60 -1 -1 86 c0 48 -2 95 -4 105 -3 16 1 18 38 12 23 -3 65 -8 92 -11z
m-2480 -174 c3 -6 -1 -7 -9 -4 -18 7 -21 14 -7 14 6 0 13 -4 16 -10z m-347
-52 c-5 -14 -58 -19 -58 -6 0 4 11 6 25 4 14 -3 25 0 25 5 0 5 3 9 6 9 3 0 4
-5 2 -12z m4424 -232 c-6 -34 -32 -50 -76 -47 -22 1 -45 6 -51 11 -5 4 -20 6
-32 5 -14 -1 -23 4 -23 12 0 7 12 13 28 14 45 1 87 10 90 18 1 5 17 7 35 7 25
-2 31 -6 29 -20z m-5312 -1366 c0 -18 -23 -34 -34 -23 -11 11 -6 41 7 46 17 6
27 -1 27 -23z m2420 -545 c14 1 28 -4 32 -9 5 -7 11 -7 19 1 8 8 19 9 37 2 14
-6 36 -9 48 -7 13 2 23 -1 24 -7 0 -5 -3 -10 -7 -10 -5 0 -14 -4 -20 -8 -7 -5
-17 -6 -22 -2 -5 3 -12 1 -15 -4 -11 -18 -146 10 -146 29 0 5 -7 7 -15 4 -8
-4 -15 -2 -15 4 0 14 21 21 40 13 8 -3 26 -6 40 -6z m1793 -222 c-3 -7 -9 -10
-14 -7 -5 3 -9 1 -9 -3 0 -5 -9 -9 -20 -9 -20 0 -28 22 -10 28 25 8 57 2 53
-9z m19 -425 c25 -12 27 -21 19 -79 -1 -9 -31 -7 -31 3 0 4 -11 8 -25 8 -14 0
-25 5 -25 10 0 6 -6 10 -13 10 -9 0 -12 10 -9 30 4 25 9 30 31 30 15 0 39 -6
53 -12z m-4604 -707 c20 -2 14 -101 -13 -207 -13 -54 -28 -101 -32 -105 -10
-9 -100 -15 -109 -7 -3 4 -13 4 -22 1 -13 -3 -14 -2 -4 4 22 16 -1 54 -77 130
-19 18 -45 36 -58 39 -13 4 -23 10 -23 15 0 5 -15 9 -32 9 -58 0 -62 15 -11
37 27 11 50 21 53 21 3 0 17 5 32 11 15 6 48 13 74 16 52 6 67 12 59 25 -8 13
60 18 163 11z m8762 -44 c0 -7 -11 -43 -25 -82 -13 -38 -25 -78 -25 -87 0 -10
-4 -18 -10 -18 -5 0 -10 -8 -10 -18 0 -10 -7 -27 -16 -38 -8 -10 -13 -13 -9
-6 7 14 10 13 -68 16 -31 2 -60 6 -64 9 -3 4 -12 2 -20 -4 -9 -9 -13 -8 -13 0
0 6 -10 11 -23 11 -31 0 -59 46 -37 60 10 7 11 10 3 10 -7 0 -12 3 -11 8 3 15
-18 47 -32 49 -8 1 -31 6 -50 11 -42 10 -87 -2 -115 -32 l-20 -21 -3 44 c-2
24 -1 45 1 47 7 7 69 15 205 25 24 2 46 7 49 11 2 5 11 4 18 -2 8 -7 15 -7 19
-1 4 6 18 6 34 1 16 -4 36 -4 45 1 12 7 17 4 22 -11 6 -18 9 -19 23 -8 12 10
14 10 8 1 -4 -7 -2 -13 4 -13 6 0 15 11 21 24 9 19 19 24 55 24 28 1 44 -3 44
-11z m-9178 -208 c13 -29 41 -39 53 -19 3 6 1 10 -4 10 -6 0 -11 10 -11 22 0
12 -8 30 -17 41 -21 23 -18 22 67 -20 64 -33 130 -83 130 -99 0 -11 -62 -10
-78 0 -7 4 -12 3 -12 -2 0 -5 -10 -8 -22 -8 -21 1 -22 -3 -25 -124 -3 -94 -8
-130 -20 -149 l-16 -25 -19 70 c-11 38 -23 76 -28 85 -9 17 -25 109 -22 122 1
4 -2 7 -7 7 -4 0 -11 26 -14 58 -4 31 -9 71 -13 87 l-6 30 26 -29 c14 -15 31
-41 38 -57z m4974 -634 c12 -16 18 -18 34 -7 25 15 27 15 33 -1 3 -8 -3 -13
-17 -14 -11 0 -39 -4 -61 -8 -22 -3 -46 -7 -52 -7 -7 -1 -13 -5 -13 -10 0 -5
-8 -4 -19 1 -10 6 -21 7 -25 4 -10 -10 -44 -15 -103 -16 -28 -1 -49 -5 -47 -9
3 -4 -7 -3 -23 3 -30 11 -30 11 -55 -2 -10 -6 -19 -5 -23 1 -3 5 -11 10 -16
10 -6 0 -8 -4 -5 -8 3 -5 -1 -9 -9 -9 -8 0 -15 4 -15 9 0 5 -10 3 -22 -3 -27
-15 -28 -14 -38 1 -5 8 -13 9 -21 4 -19 -12 -49 -12 -49 -1 0 5 -7 4 -15 -3
-12 -10 -15 -10 -15 0 0 9 -4 9 -17 -1 -13 -11 -17 -11 -20 -1 -3 6 -10 9 -16
5 -18 -11 -287 -9 -287 2 0 6 -3 6 -8 -1 -4 -6 -66 -9 -177 -7 -191 3 -195 3
-195 14 0 4 -9 5 -20 2 -12 -3 -20 0 -20 6 0 7 -3 10 -7 8 -5 -3 -17 -1 -28 4
-11 4 229 8 533 8 360 1 552 4 553 11 1 10 5 26 8 33 0 2 60 3 132 2 117 -1
133 -3 145 -20z m3044 -4 c30 -22 41 -23 171 -24 77 0 137 -2 134 -5 -8 -8
-235 -9 -277 -1 -21 3 -35 2 -32 -2 3 -5 1 -9 -5 -9 -5 0 -13 5 -16 10 -4 6
-12 7 -18 3 -19 -12 -90 -11 -106 1 -11 8 -13 8 -7 -1 4 -8 1 -13 -9 -13 -10
0 -13 5 -9 12 5 7 3 8 -7 2 -8 -5 -50 -9 -94 -10 -44 -1 -82 -3 -85 -4 -3 -1
-9 -1 -15 0 -32 8 -95 5 -95 -4 0 -7 -4 -6 -8 1 -5 8 -19 10 -37 7 -31 -7 -34
-7 -75 -1 -14 2 -31 -1 -37 -6 -7 -5 -13 -6 -13 -1 0 12 -93 11 -102 -1 -5 -6
-8 -5 -8 3 0 10 -5 10 -20 2 -11 -6 -20 -7 -20 -2 0 4 -13 8 -30 7 -16 0 -30
-4 -30 -9 0 -6 -5 -5 -12 2 -7 7 -17 8 -30 1 -12 -7 -18 -6 -18 1 0 8 -6 8
-20 0 -12 -6 -20 -7 -20 -1 0 5 -8 8 -17 6 -10 -2 -18 -4 -18 -5 0 -1 -21 -2
-48 -3 -26 -1 -47 1 -47 6 0 4 -5 7 -11 7 -5 0 -8 -3 -6 -7 3 -5 -14 -8 -37
-8 -28 0 -43 4 -43 13 0 8 21 12 68 12 74 0 102 7 93 22 -4 6 -1 14 5 17 7 4
230 7 496 7 l483 -1 32 -24z m-5662 6 c6 -4 14 -3 17 3 5 8 11 7 21 -1 8 -6
14 -8 14 -4 0 4 8 1 17 -6 11 -10 14 -10 9 -1 -5 8 -1 11 13 9 11 -2 23 -6 27
-9 3 -4 17 -3 30 2 13 5 25 6 28 2 2 -4 45 -7 94 -7 51 0 90 -4 89 -9 -1 -6
31 -10 71 -10 39 0 72 -4 72 -8 0 -4 5 -8 11 -8 5 0 7 5 3 12 -5 7 -3 8 7 2
13 -8 36 -12 97 -16 12 -1 22 -7 22 -12 0 -6 5 -4 10 4 7 11 10 12 10 2 0 -9
7 -11 20 -7 13 4 20 2 20 -7 0 -16 -121 -19 -132 -3 -5 7 -8 7 -8 0 0 -6 -66
-10 -179 -9 -113 0 -178 -3 -174 -9 4 -6 1 -7 -8 -1 -21 12 -70 14 -63 2 4 -6
-1 -6 -14 1 -14 7 -23 8 -27 1 -4 -7 -13 -6 -27 1 -16 9 -23 8 -29 -2 -6 -10
-9 -11 -9 -1 0 14 -21 12 -32 -3 -5 -6 -8 -6 -8 1 0 12 -29 12 -49 0 -7 -5
-17 -4 -23 2 -8 8 -17 8 -30 1 -11 -6 -18 -6 -18 0 0 10 -32 7 -52 -5 -7 -5
-8 -3 -3 7 8 12 6 12 -8 0 -13 -10 -17 -10 -17 -1 0 10 -3 10 -14 1 -9 -8 -16
-8 -20 -2 -6 9 -43 7 -54 -4 -3 -2 -11 0 -19 6 -10 9 -13 8 -13 -1 0 -10 -3
-10 -15 0 -11 9 -15 9 -15 1 0 -9 -5 -9 -20 -1 -14 8 -20 8 -20 0 0 -8 -6 -8
-20 0 -14 8 -20 8 -20 0 0 -8 -6 -8 -20 0 -11 6 -20 7 -20 2 0 -12 -43 -10
-52 3 -5 6 -8 6 -8 -1 0 -12 -84 -13 -96 -1 -4 3 -12 3 -18 -1 -16 -10 -86
-10 -92 0 -3 4 -11 5 -17 1 -17 -10 -256 -12 -263 -2 -3 5 -11 6 -17 2 -19
-13 -151 -12 -159 1 -6 8 -8 7 -8 -1 0 -9 -17 -12 -52 -11 -29 1 -45 3 -35 6
32 7 19 32 -17 32 -38 0 -57 17 -35 31 19 12 32 11 24 -1 -3 -5 -1 -10 4 -10
6 0 11 6 11 13 0 7 5 4 11 -5 8 -15 13 -16 31 -5 16 9 22 9 25 0 3 -9 11 -8
31 5 14 9 23 11 19 5 -5 -7 -4 -13 2 -13 5 0 13 5 17 11 4 8 9 7 15 -2 7 -12
9 -12 9 0 0 9 8 12 25 9 14 -3 25 -2 25 1 0 8 65 5 79 -3 5 -4 12 -2 16 3 3 5
14 8 25 6 11 -2 22 1 26 6 4 7 10 7 18 0 7 -6 17 -6 26 -1 8 5 22 4 33 -2 14
-7 17 -7 13 0 -4 7 8 10 34 9 23 -2 43 0 45 3 5 8 770 5 783 -3z m6307 -27
c18 -8 17 -9 -7 -9 -15 -1 -30 4 -33 9 -7 12 12 12 40 0z m-2055 -9 c0 -15
-19 -17 -220 -16 -119 0 -198 -4 -202 -10 -5 -7 -8 -7 -8 0 0 6 -40 9 -110 7
-70 -2 -110 0 -110 6 0 6 8 12 18 15 37 9 632 7 632 -2z m97 3 c-3 -3 -12 -4
-19 -1 -8 3 -5 6 6 6 11 1 17 -2 13 -5z m120 -9 c2 -6 -6 -11 -17 -11 -11 0
-20 6 -20 14 0 15 32 13 37 -3z m1613 6 c0 -3 -22 -6 -50 -6 -27 0 -50 3 -50
7 0 4 23 7 50 6 28 0 50 -3 50 -7z m43 2 c-7 -2 -19 -2 -25 0 -7 3 -2 5 12 5
14 0 19 -2 13 -5z m87 -7 c-7 -7 -13 -7 -20 0 -6 6 -3 10 10 10 13 0 16 -4 10
-10z m-2626 -15 c4 -5 -3 -7 -14 -4 -23 6 -26 13 -6 13 8 0 17 -4 20 -9z
m-4951 -25 c17 -13 16 -14 -3 -19 -12 -3 -18 -1 -14 5 4 6 0 14 -7 19 -8 5 -9
9 -4 9 6 -1 18 -7 28 -14z m2110 7 c-7 -2 -19 -2 -25 0 -7 3 -2 5 12 5 14 0
19 -2 13 -5z m3524 -277 l-15 -27 -10 28 c-6 15 -11 22 -11 16 -1 -11 -50 -43
-66 -43 -3 0 5 16 17 35 22 33 31 38 71 38 9 0 18 5 18 11 1 6 4 2 6 -10 2
-11 -3 -32 -10 -48z m136 28 c-19 -29 -28 -25 -19 10 4 17 11 23 21 20 12 -5
12 -9 -2 -30z m-241 17 c31 9 36 -4 14 -33 -12 -16 -14 -16 -34 2 -21 20 -44
27 -40 13 1 -5 -3 -18 -10 -31 -12 -21 -14 -21 -43 -6 -17 8 -29 21 -26 27 3
7 -6 13 -19 13 -13 1 -21 -2 -18 -8 3 -5 0 -16 -7 -24 -10 -12 -9 -13 5 -8 9
3 16 10 16 15 0 5 14 0 30 -13 19 -14 28 -28 25 -38 -3 -8 10 2 30 22 21 23
41 35 50 32 27 -11 16 -32 -20 -38 -19 -4 -35 -11 -35 -17 0 -12 32 -8 42 6 5
6 8 5 8 -3 0 -7 4 -10 10 -7 5 3 18 2 27 -4 27 -15 -129 -6 -157 9 -49 26 -98
67 -92 76 4 5 46 9 94 9 47 -1 84 3 82 7 -3 4 5 4 18 -1 13 -4 35 -5 50 0z
m152 -28 c-9 -21 -18 -44 -21 -51 -5 -11 -7 -11 -13 -1 -12 18 21 89 41 89 5
0 2 -17 -7 -37z m184 -25 c-5 -32 -16 -59 -24 -62 -17 -7 -18 18 -3 65 12 33
29 62 34 57 2 -2 -1 -29 -7 -60z m-145 32 c-3 -12 -8 -19 -11 -16 -5 6 5 36
12 36 2 0 2 -9 -1 -20z m-783 -5 c8 0 21 4 28 9 8 5 12 4 12 -4 0 -10 3 -10
14 -1 11 9 15 9 19 -1 4 -8 8 -9 14 -3 9 11 213 18 213 6 0 -3 14 -15 31 -25
21 -12 29 -24 27 -39 -2 -17 -11 -20 -45 -21 -24 -1 -43 2 -43 7 0 4 -6 5 -12
1 -19 -12 -48 -12 -48 -1 0 5 -6 5 -13 -2 -10 -8 -17 -7 -25 1 -9 9 -12 9 -12
0 0 -10 -5 -10 -20 -2 -15 8 -20 8 -20 -2 0 -9 -3 -9 -12 0 -8 8 -15 9 -25 1
-7 -7 -13 -7 -13 -2 0 5 -9 9 -20 9 -11 0 -20 -4 -20 -9 0 -5 -6 -5 -12 1 -14
11 -47 10 -66 -2 -6 -4 -12 -3 -12 1 0 5 -56 9 -124 8 -76 0 -122 3 -119 9 4
5 1 6 -8 0 -17 -10 -69 -12 -90 -3 -8 4 -21 4 -29 -1 -9 -5 -19 -5 -27 2 -9 7
-13 7 -13 0 0 -7 -10 -8 -30 -2 -17 5 -30 5 -30 0 0 -5 -13 -5 -30 0 -19 5
-32 5 -36 -2 -4 -6 -10 -5 -15 3 -7 12 -9 12 -9 0 0 -11 -3 -11 -15 -1 -12 10
-15 10 -15 -1 0 -10 -3 -10 -12 -1 -16 16 -31 15 -22 0 5 -10 4 -10 -6 -1 -10
9 -17 10 -27 2 -9 -8 -13 -8 -13 -1 0 6 -6 9 -14 6 -8 -3 -17 -1 -21 5 -3 6
-12 11 -18 11 -7 0 -6 -4 3 -10 12 -7 11 -9 -6 -8 -20 2 -53 27 -37 29 17 2
154 9 263 13 63 2 123 7 133 11 10 4 17 3 17 -4 0 -9 5 -9 21 0 17 9 20 8 14
-2 -6 -8 -4 -10 5 -4 13 8 75 12 238 16 45 1 85 6 88 11 3 4 11 5 17 1 7 -4
19 -8 27 -8z m848 -57 c-6 -18 -13 -27 -16 -20 -6 19 7 64 18 57 5 -3 4 -19
-2 -37z m-75 -13 c-3 -9 -8 -14 -10 -11 -3 3 -2 9 2 15 9 16 15 13 8 -4z
m-2643 -240 c8 0 18 4 21 9 4 4 10 3 13 -3 4 -6 2 -11 -3 -12 -41 -4 -55 -2
-59 11 -2 9 0 11 5 5 4 -5 15 -10 23 -10z m68 -10 c-3 -3 -9 2 -12 12 -6 14
-5 15 5 6 7 -7 10 -15 7 -18z m2017 -215 c12 10 15 10 15 0 0 -8 6 -10 18 -5
9 4 45 8 79 9 53 2 63 -1 73 -19 7 -13 9 -14 6 -3 -3 10 0 20 6 24 7 4 8 3 4
-4 -4 -7 -2 -12 3 -12 6 0 11 5 11 10 0 19 17 10 28 -15 12 -27 4 -33 -17 -12
-8 6 -11 7 -8 2 3 -7 -5 -11 -20 -10 -15 0 -28 6 -31 13 -2 6 -8 12 -13 12 -4
0 -6 -7 -3 -15 4 -10 0 -13 -13 -10 -11 2 -26 -1 -33 -5 -8 -5 -22 -4 -31 1
-10 5 -20 5 -23 1 -5 -8 -110 -6 -133 3 -7 2 -13 -1 -13 -8 0 -9 -3 -9 -9 1
-4 7 -14 12 -22 10 -8 -2 -13 3 -11 10 1 8 -2 11 -8 7 -6 -3 -8 -11 -5 -16 8
-12 -2 -12 -25 1 -12 6 -21 6 -25 1 -5 -9 -54 -5 -63 4 -2 2 -15 0 -29 -6 -16
-6 -22 -6 -18 1 3 6 1 10 -4 10 -6 0 -11 -5 -11 -11 0 -5 -4 -7 -10 -4 -24 15
-4 20 78 22 134 3 200 8 208 16 4 4 13 2 21 -4 10 -9 17 -8 28 1z m-465 -15
c0 -2 -6 -8 -13 -14 -10 -8 -14 -7 -14 2 0 8 6 14 14 14 7 0 13 -1 13 -2z m52
-3 c4 10 8 10 21 -1 11 -9 17 -10 17 -2 0 6 5 11 10 11 6 0 10 -6 10 -13 0 -8
-17 -12 -54 -12 -43 0 -52 2 -44 12 8 10 14 10 23 3 9 -8 14 -7 17 2z m1122
-41 c-2 -3 -12 3 -22 13 -16 17 -16 18 5 5 12 -7 20 -15 17 -18z m-3878 -223
c-6 9 20 12 118 10 69 -1 126 -6 126 -11 0 -4 4 -6 9 -3 5 4 7 -3 4 -14 -3
-11 -9 -20 -14 -20 -5 0 -6 7 -3 15 4 8 1 15 -7 15 -7 0 -10 -3 -6 -6 3 -3 -3
-15 -13 -27 -11 -11 -18 -23 -15 -26 3 -2 11 4 19 14 9 12 15 15 20 7 4 -7 3
-12 -3 -12 -6 0 -8 -6 -5 -13 5 -13 -26 -18 -133 -21 -24 0 -43 -3 -43 -7 0
-8 -32 -5 -48 5 -7 4 -10 12 -7 17 4 5 2 9 -4 9 -5 0 -11 -10 -13 -22 -3 -21
-4 -21 -9 4 -4 15 -3 26 0 24 3 -2 12 3 20 11 12 13 11 14 -6 9 -16 -5 -19 -2
-17 16 1 13 3 27 3 32 1 5 9 2 18 -5 12 -10 14 -10 9 -1z m473 -7 c7 -5 11
-13 7 -19 -3 -6 -2 -13 4 -17 16 -10 12 -22 -9 -28 -11 -2 -25 3 -35 14 -9 11
-11 19 -6 19 6 0 9 3 9 8 -5 30 5 38 30 23z m250 -3 c8 -7 11 -8 8 -2 -4 8 14
10 61 7 83 -4 133 -4 143 2 4 3 6 -7 4 -22 -3 -25 -2 -26 11 -8 8 10 14 14 14
8 0 -13 -24 -34 -36 -32 -5 1 -11 0 -14 -1 -18 -8 -108 -5 -119 4 -11 8 -13 8
-8 0 4 -8 -8 -11 -38 -11 -34 0 -45 4 -46 16 -1 13 -2 13 -6 -2 -2 -9 -8 -15
-13 -12 -5 3 -7 12 -3 20 3 8 0 15 -6 15 -6 0 -11 4 -11 9 0 8 12 14 41 20 3
0 11 -5 18 -11z m796 -18 c22 -4 12 -6 -30 -5 -24 0 -47 3 -50 7 -4 4 5 5 20
2 18 -3 24 -1 20 7 -5 8 -2 8 11 1 11 -6 24 -11 29 -12z m39 4 c3 -8 2 -12 -4
-9 -6 3 -10 10 -10 16 0 14 7 11 14 -7z m2497 -185 c32 -3 34 -5 36 -38 1 -20
-1 -30 -4 -23 -2 6 -9 12 -15 12 -7 0 -7 -5 1 -13 6 -8 7 -18 3 -22 -4 -5 -1
-5 5 -1 7 4 21 2 30 -4 14 -8 14 -10 3 -9 -8 1 -24 1 -35 -1 l-20 -1 20 -8
c11 -5 26 -6 33 -4 6 3 12 1 12 -5 0 -6 -8 -9 -17 -7 -10 1 -24 -3 -32 -9 -12
-8 -13 -8 -7 2 5 9 3 13 -5 11 -34 -4 -90 2 -85 9 3 5 -1 9 -8 9 -8 0 -12 -7
-8 -15 3 -10 1 -13 -6 -8 -6 3 -10 20 -10 36 1 26 3 28 17 18 9 -7 6 -1 -6 13
-18 20 -20 28 -10 39 10 10 9 11 -2 5 -9 -5 -12 -4 -7 3 10 17 59 16 51 0 -3
-7 0 -5 7 4 6 9 15 15 18 13 4 -2 22 -5 41 -6z m-127 -30 c-2 -4 0 -11 6 -14
8 -5 7 -11 -1 -21 -9 -11 -9 -14 0 -14 7 0 9 -5 5 -11 -9 -15 -24 10 -17 29 3
8 0 18 -8 23 -10 6 -10 9 -2 9 7 0 10 7 7 18 -5 14 -4 14 4 2 6 -8 9 -17 6
-21z m-407 8 c6 -4 13 -3 15 3 1 5 13 7 25 4 13 -4 20 -11 17 -18 -3 -6 1 -3
9 7 15 18 32 24 22 7 -9 -14 8 -12 25 3 11 9 11 8 0 -7 -14 -18 -13 -19 2 -13
10 3 20 2 23 -4 4 -5 3 -9 -2 -8 -21 4 -33 -2 -33 -17 0 -17 -39 -16 -53 1 -4
6 -5 -3 -1 -19 5 -20 4 -27 -4 -22 -7 4 -21 2 -33 -5 -22 -12 -40 1 -35 25 2
6 1 8 -1 3 -3 -4 -10 -4 -16 0 -7 4 -6 -1 2 -10 11 -15 11 -17 -2 -17 -21 0
-29 50 -8 51 10 0 12 2 4 6 -7 2 -13 9 -13 15 0 6 7 7 16 4 13 -5 14 -4 6 7
-9 11 -8 13 6 12 9 0 23 -4 29 -8z m-459 -32 c-3 -3 -9 2 -12 12 -6 14 -5 15
5 6 7 -7 10 -15 7 -18z m108 9 c-4 -10 -2 -14 6 -11 7 2 12 10 10 16 -1 7 2
10 8 6 8 -5 8 -11 1 -19 -6 -7 -9 -15 -7 -17 2 -2 -2 -10 -10 -17 -9 -8 -14
-9 -14 -2 0 6 -5 8 -10 5 -6 -4 -8 -12 -4 -18 3 -7 -1 -4 -9 6 -9 11 -17 14
-20 7 -3 -6 -4 -5 -3 2 2 7 11 11 21 10 16 -3 17 -1 6 12 -12 15 -8 20 12 17
4 0 7 4 7 9 0 6 3 10 6 10 3 0 3 -7 0 -16z m-352 -16 c18 -25 11 -44 -10 -27
-11 9 -17 9 -28 0 -10 -9 -16 -9 -21 -1 -5 8 -11 7 -23 -2 -14 -11 -15 -10 -9
6 6 16 5 17 -7 7 -10 -8 -16 -9 -21 -1 -3 5 -1 10 5 10 6 0 9 4 6 8 -2 4 11 7
30 7 19 -1 37 2 40 7 9 14 22 9 38 -14z m-167 -2 c-3 -16 -50 -35 -63 -25 -6
5 -14 6 -18 2 -11 -11 -37 -12 -30 -1 5 7 -2 9 -19 6 -18 -3 -24 -1 -20 8 6
15 68 16 96 2 12 -6 19 -5 23 5 6 16 34 19 31 3z m948 -26 c3 -5 1 -10 -4 -10
-6 0 -11 5 -11 10 0 6 2 10 4 10 3 0 8 -4 11 -10z m-250 -10 c3 -6 -1 -7 -9
-4 -18 7 -21 14 -7 14 6 0 13 -4 16 -10z m91 -2 c-10 -6 -22 -6 -26 -2 -5 5 3
10 18 11 22 1 24 0 8 -9z m284 -3 c5 3 11 1 14 -4 4 -5 -2 -8 -11 -7 -9 2 -18
8 -19 15 -1 6 0 7 3 1 2 -5 9 -8 13 -5z m50 5 c8 -5 11 -10 5 -10 -5 0 -17 5
-25 10 -8 5 -10 10 -5 10 6 0 17 -5 25 -10z m110 -17 c0 -19 -13 -9 -16 12 -1
8 2 13 7 9 5 -3 9 -12 9 -21z m273 14 c19 12 34 12 34 -1 0 -7 -9 -13 -20 -13
-11 -1 -23 -7 -27 -14 -4 -6 -7 2 -7 17 0 16 2 23 4 16 3 -6 10 -9 16 -5z m82
-9 c5 -4 0 -6 -13 -5 -22 1 -27 8 -15 20 3 4 9 4 12 0 3 -4 10 -11 16 -15z
m89 -20 c-3 -4 -9 -8 -15 -8 -5 0 -9 4 -9 8 0 5 7 9 15 9 8 0 12 -4 9 -9z
m-3309 -159 c5 9 11 9 23 -1 9 -7 13 -8 10 -3 -4 6 6 10 23 10 16 0 29 -3 29
-7 0 -4 11 -3 24 2 13 5 26 6 30 3 9 -10 96 -10 96 -1 0 5 6 6 13 1 18 -11 61
-10 69 2 5 6 8 6 8 -2 0 -6 9 -9 22 -5 16 4 19 2 13 -8 -6 -10 -4 -11 6 -4 17
11 75 12 112 3 15 -4 27 -5 27 -1 0 10 85 7 101 -3 7 -5 14 -4 17 3 2 7 8 9
14 6 5 -3 107 -7 226 -9 119 -1 222 -4 227 -5 6 -1 12 -1 15 0 14 5 60 5 60
-1 0 -9 21 -6 38 4 7 5 12 3 12 -4 0 -8 4 -8 15 1 12 10 15 10 16 -1 0 -11 2
-11 6 -1 4 10 9 9 20 -5 8 -10 11 -12 8 -5 -5 10 0 13 21 11 16 -2 35 1 43 6
10 5 16 4 19 -3 2 -6 11 -8 20 -5 13 4 12 2 -3 -10 -12 -9 -24 -12 -29 -7 -6
6 -16 5 -25 -3 -12 -10 -13 -9 -6 2 6 11 4 13 -11 6 -18 -7 -83 -11 -281 -17
-51 -2 -93 -6 -93 -10 0 -4 -11 -3 -25 2 -14 5 -25 6 -25 2 0 -5 -36 -8 -80
-8 -44 1 -80 -1 -80 -4 0 -3 -23 -5 -50 -4 -28 0 -53 -3 -56 -8 -3 -4 -14 -4
-24 2 -13 7 -21 7 -25 0 -4 -7 -12 -7 -25 0 -10 6 -21 6 -24 2 -2 -4 -32 -7
-65 -7 -34 0 -61 -2 -61 -5 0 -3 -39 -6 -88 -7 -48 -1 -99 -4 -114 -6 -16 -2
-28 0 -28 5 0 5 -6 6 -12 1 -7 -4 -42 -9 -78 -10 -36 -1 -83 -3 -105 -4 -57
-2 -67 0 -60 11 3 5 11 8 18 6 7 -1 9 -1 5 1 -5 3 -8 11 -8 19 0 9 5 12 13 8
9 -5 9 -4 0 6 -15 16 0 50 22 50 8 0 15 6 15 13 0 9 3 8 9 -2 6 -9 10 -10 16
-2z m119 -275 c3 -8 2 -12 -4 -9 -6 3 -10 10 -10 16 0 14 7 11 14 -7z m31 6
c3 -6 -1 -7 -9 -4 -18 7 -21 14 -7 14 6 0 13 -4 16 -10z"/>
<path d="M7029 3403 c-13 -16 -12 -17 4 -4 9 7 17 15 17 17 0 8 -8 3 -21 -13z"/>
<path d="M3747 3129 c7 -7 15 -10 18 -7 3 3 -2 9 -12 12 -14 6 -15 5 -6 -5z"/>
<path d="M4215 3130 c-3 -5 1 -10 10 -10 9 0 13 5 10 10 -3 6 -8 10 -10 10 -2
0 -7 -4 -10 -10z"/>
<path d="M4218 3092 c4 -10 7 -12 10 -4 2 7 9 9 15 5 7 -3 8 -2 4 2 -14 16
-36 14 -29 -3z"/>
<path d="M7827 2917 c-3 -8 1 -14 8 -14 7 0 11 6 8 14 -3 7 -6 13 -8 13 -2 0
-5 -6 -8 -13z"/>
<path d="M7365 2891 c-3 -5 -2 -12 3 -15 5 -3 9 1 9 9 0 17 -3 19 -12 6z"/>
<path d="M7286 2843 c-6 -14 -5 -15 5 -6 7 7 10 15 7 18 -3 3 -9 -2 -12 -12z"/>
<path d="M6910 2886 c0 -2 8 -10 18 -17 15 -13 16 -12 3 4 -13 16 -21 21 -21
13z"/>
<path d="M6550 2886 c0 -2 7 -7 16 -10 8 -3 12 -2 9 4 -6 10 -25 14 -25 6z"/>
<path d="M4726 2612 c-3 -5 1 -9 9 -9 8 0 15 4 15 9 0 4 -4 8 -9 8 -6 0 -12
-4 -15 -8z"/>
<path d="M10547 8659 c7 -7 15 -10 18 -7 3 3 -2 9 -12 12 -14 6 -15 5 -6 -5z"/>
<path d="M10503 5098 c4 -12 2 -15 -9 -11 -10 4 -13 -1 -11 -18 4 -26 20 -34
45 -23 9 4 20 7 24 6 4 -1 5 5 2 13 -4 8 -11 12 -18 8 -6 -4 -6 0 2 9 9 11 10
18 2 23 -5 3 -10 1 -10 -6 0 -8 -5 -7 -17 2 -15 12 -16 12 -10 -3z"/>
<path d="M10255 5000 c-3 -5 -1 -10 5 -10 6 0 8 -4 5 -10 -8 -13 6 -13 25 0
13 9 13 11 0 20 -19 12 -27 12 -35 0z"/>
<path d="M10500 4731 c0 -10 19 -25 25 -20 1 2 -3 10 -11 17 -8 7 -14 8 -14 3z"/>
<path d="M10522 4684 c-14 -16 -5 -18 17 -5 7 5 9 11 5 14 -5 3 -15 -1 -22 -9z"/>
<path d="M10558 4633 c7 -3 16 -2 19 1 4 3 -2 6 -13 5 -11 0 -14 -3 -6 -6z"/>
<path d="M10565 4610 c-3 -5 -1 -10 4 -10 6 0 11 5 11 10 0 6 -2 10 -4 10 -3
0 -8 -4 -11 -10z"/>
<path d="M1205 4230 c-3 -5 3 -10 15 -10 12 0 18 5 15 10 -3 6 -10 10 -15 10
-5 0 -12 -4 -15 -10z"/>
<path d="M1352 4232 c-14 -2 -20 -8 -15 -15 4 -7 8 -16 8 -22 0 -14 55 -23 82
-14 17 6 21 5 17 -6 -4 -10 5 -16 32 -21 39 -7 91 5 86 20 -2 5 2 13 10 17 9
6 7 9 -9 9 -13 0 -26 0 -29 -1 -4 0 -10 5 -15 13 -11 17 -49 19 -49 2 0 -8 5
-14 12 -14 6 0 9 -2 6 -5 -3 -3 -18 0 -34 6 -16 7 -35 11 -42 10 -8 -1 -19 4
-25 11 -7 8 -22 12 -35 10z"/>
<path d="M1224 4205 c-10 -8 -14 -15 -9 -16 79 -10 116 -4 108 17 -7 19 -73
18 -99 -1z"/>
<path d="M1610 4180 l-25 -6 23 -13 c12 -7 32 -9 42 -6 44 14 7 37 -40 25z"/>
<path d="M7524 3432 c-9 -5 -8 -10 1 -19 11 -10 13 -9 12 7 -1 11 -1 20 -2 20
0 0 -5 -4 -11 -8z"/>
<path d="M7853 3418 c-17 -22 -26 -45 -10 -26 8 10 16 16 19 13 2 -3 5 2 5 10
0 18 -2 18 -14 3z"/>
<path d="M8180 3419 c0 -5 -6 -7 -12 -3 -7 4 -9 3 -5 -1 13 -15 36 -14 30 1
-6 17 -13 18 -13 3z"/>
<path d="M8215 3419 c-4 -6 -5 -12 -2 -15 2 -3 7 2 10 11 7 17 1 20 -8 4z"/>
<path d="M7427 3406 c-3 -8 -2 -18 3 -21 13 -8 20 9 11 24 -6 10 -10 9 -14 -3z"/>
<path d="M7815 3410 c-3 -5 -1 -10 4 -10 6 0 11 5 11 10 0 6 -2 10 -4 10 -3 0
-8 -4 -11 -10z"/>
<path d="M7880 3410 c0 -5 5 -10 11 -10 5 0 7 5 4 10 -3 6 -8 10 -11 10 -2 0
-4 -4 -4 -10z"/>
<path d="M8010 3409 c0 -5 5 -7 10 -4 6 3 10 8 10 11 0 2 -4 4 -10 4 -5 0 -10
-5 -10 -11z"/>
<path d="M8110 3410 c0 -4 7 -7 15 -6 23 3 26 12 5 13 -11 1 -20 -2 -20 -7z"/>
<path d="M3115 3130 c3 -5 8 -10 11 -10 2 0 4 5 4 10 0 6 -5 10 -11 10 -5 0
-7 -4 -4 -10z"/>
<path d="M3100 3056 c0 -3 9 -10 20 -16 11 -6 20 -8 20 -6 0 3 -9 10 -20 16
-11 6 -20 8 -20 6z"/>
<path d="M8742 2934 c10 -10 20 -16 22 -13 3 3 -5 11 -17 18 -21 13 -21 12 -5
-5z"/>
<path d="M8496 2871 c8 -8 43 -8 38 0 -2 4 -13 7 -24 6 -10 -1 -17 -3 -14 -6z"/>
<path d="M8315 2846 c-11 -8 -26 -12 -35 -9 -13 4 -13 3 0 -5 8 -5 26 -13 40
-17 24 -7 24 -7 5 9 -18 14 -18 15 -2 16 9 0 17 5 17 10 0 13 -3 13 -25 -4z"/>
<path d="M8375 2830 c-3 -5 -1 -10 4 -10 6 0 11 5 11 10 0 6 -2 10 -4 10 -3 0
-8 -4 -11 -10z"/>
<path d="M8475 2820 c-16 -7 -17 -9 -3 -9 9 -1 20 4 23 9 7 11 7 11 -20 0z"/>
<path d="M4724 2123 c4 -8 1 -13 -8 -13 -8 0 -18 -4 -21 -10 -4 -7 2 -7 19 0
17 6 26 6 30 -3 3 -9 5 -9 5 0 1 7 8 10 18 6 11 -4 14 -3 9 6 -5 7 -14 10 -21
7 -7 -2 -18 1 -25 7 -10 9 -11 9 -6 0z"/>
<path d="M4787 2114 c6 -16 31 -26 38 -14 3 5 14 7 24 5 11 -2 22 2 24 9 4 9
-4 13 -23 12 -15 -1 -26 -4 -24 -8 2 -4 0 -9 -6 -13 -5 -3 -10 0 -10 8 0 7 -6
14 -14 14 -8 0 -12 -6 -9 -13z"/>
<path d="M4605 2109 c7 -10 55 -18 55 -9 0 4 -13 10 -29 12 -17 2 -28 1 -26
-3z"/>
<path d="M4670 2109 c0 -5 5 -7 10 -4 6 3 10 8 10 11 0 2 -4 4 -10 4 -5 0 -10
-5 -10 -11z"/>
<path d="M4415 2101 c-3 -5 -2 -12 3 -15 5 -3 9 1 9 9 0 17 -3 19 -12 6z"/>
<path d="M4457 2099 c7 -7 15 -10 18 -7 3 3 -2 9 -12 12 -14 6 -15 5 -6 -5z"/>
<path d="M4558 2103 c7 -3 16 -2 19 1 4 3 -2 6 -13 5 -11 0 -14 -3 -6 -6z"/>
</g>
</svg>
